<svg width="33" height="34" viewBox="0 0 33 34" fill="none" xmlns="http://www.w3.org/2000/svg">
<path fill-rule="evenodd" clip-rule="evenodd" d="M16.75 4C14.4763 3.99958 12.2421 4.59554 10.2707 5.7284C8.29922 6.86125 6.65936 8.49137 5.51479 10.456C4.37022 12.4207 3.76097 14.6513 3.74785 16.925C3.73473 19.1987 4.3182 21.4361 5.44002 23.4139C6.19826 22.4284 7.17297 21.6306 8.28878 21.082C9.4046 20.5334 10.6316 20.2487 11.875 20.25H21.625C22.8684 20.2487 24.0954 20.5334 25.2113 21.082C26.3271 21.6306 27.3018 22.4284 28.06 23.4139C29.1818 21.4361 29.7653 19.1987 29.7522 16.925C29.7391 14.6513 29.1298 12.4207 27.9852 10.456C26.8407 8.49137 25.2008 6.86125 23.2294 5.7284C21.2579 4.59554 19.0238 3.99958 16.75 4ZM29.6574 26.8735C31.8301 24.0411 33.0053 20.5698 33 17C33 8.02513 25.7249 0.75 16.75 0.75C7.77514 0.75 0.500018 8.02513 0.500018 17C0.494653 20.5698 1.66986 24.0411 3.84264 26.8735L3.83452 26.9028L4.41139 27.5739C5.93546 29.3557 7.82777 30.7859 9.9579 31.7658C12.088 32.7457 14.4053 33.2521 16.75 33.25C20.0444 33.2561 23.262 32.2554 25.9719 30.3819C27.1272 29.5837 28.1747 28.6399 29.0886 27.5739L29.6655 26.9028L29.6574 26.8735ZM16.75 7.25C15.4571 7.25 14.2171 7.76361 13.3029 8.67785C12.3886 9.59209 11.875 10.8321 11.875 12.125C11.875 13.4179 12.3886 14.6579 13.3029 15.5721C14.2171 16.4864 15.4571 17 16.75 17C18.0429 17 19.2829 16.4864 20.1972 15.5721C21.1114 14.6579 21.625 13.4179 21.625 12.125C21.625 10.8321 21.1114 9.59209 20.1972 8.67785C19.2829 7.76361 18.0429 7.25 16.75 7.25Z" fill="#555555"/>
</svg>
